<svg id="svg" version="1.1" xmlns="http://www.w3.org/2000/svg" xmlns:xlink="http://www.w3.org/1999/xlink" width="400" height="397.60479041916165" viewBox="0, 0, 400,397.60479041916165"><g id="svgg"><path id="path0" d="M69.079 55.860 C 68.818 56.283,70.336 57.507,72.452 58.580 C 86.161 65.527,96.275 76.559,98.129 86.590 C 99.274 92.781,99.352 249.436,98.213 255.439 C 96.522 264.356,90.801 271.465,80.130 277.911 C 76.413 280.156,73.487 282.337,73.627 282.757 C 73.785 283.232,88.486 283.497,112.390 283.456 C 133.570 283.420,150.898 283.605,150.898 283.867 C 150.898 284.129,149.868 285.845,148.609 287.680 C 128.852 316.487,142.928 347.567,178.889 354.538 C 219.928 362.494,254.749 337.106,278.603 281.836 C 282.656 272.444,286.730 263.130,288.296 259.673 C 289.143 257.802,292.042 250.976,294.738 244.503 C 297.434 238.030,301.234 228.962,303.183 224.351 C 305.132 219.741,307.913 213.094,309.363 209.581 C 311.827 203.612,319.837 184.497,324.992 172.283 C 333.745 151.548,346.605 134.350,358.392 127.618 C 364.721 124.003,363.908 123.900,329.142 123.911 C 292.336 123.923,292.770 123.849,298.625 129.114 C 312.281 141.392,312.846 152.496,301.381 183.234 C 298.433 191.138,295.023 200.299,293.805 203.593 C 292.586 206.886,289.194 215.689,286.266 223.154 C 283.338 230.619,280.223 238.703,279.343 241.118 C 277.772 245.428,272.483 258.952,268.470 268.919 C 266.827 273.001,266.250 273.765,265.454 272.911 C 263.573 270.895,258.490 258.173,251.952 239.122 C 241.760 209.422,234.694 198.141,220.743 189.293 L 217.301 187.110 226.122 182.858 C 282.117 155.868,282.326 86.279,226.485 61.929 C 221.872 59.917,209.097 57.134,198.823 55.901 C 189.924 54.834,69.737 54.795,69.079 55.860 M183.692 71.546 C 223.513 78.351,243.652 117.654,224.364 150.920 C 212.671 171.086,201.361 175.522,159.880 176.213 L 133.333 176.655 133.333 124.655 C 133.333 83.624,133.544 72.640,134.331 72.585 C 134.880 72.546,138.383 72.049,142.116 71.479 C 152.147 69.949,174.556 69.984,183.692 71.546 M177.913 192.394 C 193.741 194.214,204.114 204.132,212.895 225.839 C 217.672 237.650,217.864 236.963,208.184 242.713 C 185.974 255.906,172.399 264.862,164.142 271.769 C 161.460 274.013,158.653 276.331,157.904 276.921 C 155.334 278.946,142.085 269.582,137.707 262.647 C 133.617 256.167,133.333 253.496,133.333 221.412 L 133.333 191.617 152.295 191.623 C 162.725 191.626,174.252 191.973,177.913 192.394 M223.218 254.491 C 226.790 264.211,233.151 278.990,236.975 286.452 C 240.903 294.120,243.075 295.815,250.002 296.619 C 255.709 297.281,255.742 296.630,249.607 304.476 C 228.653 331.275,198.360 339.980,181.832 323.952 C 165.734 308.340,173.942 284.627,202.629 263.872 C 206.271 261.238,211.660 257.198,214.605 254.895 C 221.155 249.773,221.478 249.758,223.218 254.491 " stroke="none" fill="#000000" fill-rule="evenodd"></path></g></svg>